# xmcd
#
# Track frame offsets:
#	150
#	12298
#	28746
#	39554
#	53892
#	68554
#	83196
#	100542
#	113355
#	131275
#	143185
#	154771
#	173062
#
# Disc length: 2519 seconds
# Revision: 0
# Processed by: cddbd v1.5.2PL0 Copyright (c) Steve Scherf et al.
# Submitted via: dBpowerAMP V12.0
#
DISCID=9809d50d
DTITLE=JIm Lauderdale - Carolina Moonrise: Songs by Robert Hunter and Jim Lauderdale
DYEAR=2012
DGENRE=Country
TTITLE0=Iodine
TTITLE1=Triple Crossroad Blues
TTITLE2=I Won't Let It Show
TTITLE3=Anybody's Guess
TTITLE4=Troublemaker
TTITLE5=Cole Bernier
TTITLE6=Happiness
TTITLE7=Can I Have This Dance?
TTITLE8=On The Level
TTITLE9=The Night The Moon Fell Down
TTITLE10=Don't Back Down
TTITLE11=Fiddler's Heaven
TTITLE12=Wild And Free
EXTD=
EXTT0=
EXTT1=
EXTT2=
EXTT3=
EXTT4=
EXTT5=
EXTT6=
EXTT7=
EXTT8=
EXTT9=
EXTT10=
EXTT11=
EXTT12=
PLAYORDER=
